<svg xmlns="http://www.w3.org/2000/svg" aria-hidden="true" viewBox="0 0 410 404"><path fill="#41D1FF" d="M399.641 59.525l-183.998 329.02c-3.799 6.793-13.559 6.833-17.415.073L10.582 59.556c-4.199-7.363 2.109-16.257 10.428-14.766l184.331 32.976a10.02 10.02 0 003.607-.005l180.489-32.877c8.283-1.508 14.607 7.311 10.204 14.641z"/><path fill="#FFEA83" d="M292.965 1.574L156.801 28.257a4.53 4.53 0 00-3.635 4.171L144.777 174.29a4.535 4.535 0 005.556 4.697l37.926-8.753a4.537 4.537 0 015.459 5.325l-11.271 55.216a4.535 4.535 0 005.828 5.157l23.43-7.114a4.535 4.535 0 015.828 5.161l-17.912 86.68c-1.279 6.187 6.955 9.542 10.348 4.213L292.552 8.126c3.398-5.335-1.774-11.897-7.827-10.552z"/></svg>
